<?xml version="1.0" encoding="UTF-8" standalone="no"?>
<svg width="28px" height="32px" viewBox="0 0 28 32" version="1.1" xmlns="http://www.w3.org/2000/svg" xmlns:xlink="http://www.w3.org/1999/xlink" xmlns:sketch="http://www.bohemiancoding.com/sketch/ns">
    <!-- Generator: Sketch 3.1 (8751) - http://www.bohemiancoding.com/sketch -->
    <title>video</title>
    <desc>Created with Sketch.</desc>
    <defs></defs>
    <g id="Page-1" stroke="none" stroke-width="1" fill="none" fill-rule="evenodd" sketch:type="MSPage">
        <g id="video" sketch:type="MSArtboardGroup" fill="#000000">
            <path d="M26.7604167,6.78572237 L21.0729167,1.21428716 C20.3984375,0.553572088 19.0494792,0 18.0833333,0 L1.75,0 C0.783854167,0 0,0.767858058 0,1.71428776 L0,30.2857504 C0,31.2321801 0.783854167,32.0000381 1.75,32.0000381 L26.25,32.0000381 C27.2161458,32.0000381 28,31.2321801 28,30.2857504 L28,9.71429729 C28,8.76786759 27.4348958,7.44643745 26.7604167,6.78572237 L26.7604167,6.78572237 Z M18.6666667,2.42857432 C18.9765625,2.53571731 19.2864583,2.69643179 19.4140625,2.82143193 L25.1197917,8.41072431 C25.2473958,8.53572446 25.4114583,8.83929625 25.5208333,9.14286804 L18.6666667,9.14286804 L18.6666667,2.42857432 Z M25.6666667,29.7143211 L2.33333333,29.7143211 L2.33333333,2.28571701 L16.3333333,2.28571701 L16.3333333,9.71429729 C16.3333333,10.660727 17.1171875,11.4285851 18.0833333,11.4285851 L25.6666667,11.4285851 L25.6666667,29.7143211 Z M14,13.7143021 L7,13.7143021 C5.72395833,13.7143021 4.66666667,14.7500176 4.66666667,16.0000191 L4.66666667,22.8571701 C4.66666667,24.1071716 5.72395833,25.1428871 7,25.1428871 L14,25.1428871 C15.2760417,25.1428871 16.3333333,24.1071716 16.3333333,22.8571701 L16.3333333,16.0000191 C16.3333333,14.7500176 15.2760417,13.7143021 14,13.7143021 L14,13.7143021 Z M22.96875,13.7500164 C22.8958333,13.7321592 22.8229167,13.7143021 22.75,13.7143021 C22.6041667,13.7143021 22.4401042,13.7678736 22.3307292,13.8750165 L17.5,18.6250222 L17.5,20.232167 L22.3307292,24.9821726 C22.4401042,25.0893156 22.6041667,25.1428871 22.75,25.1428871 C22.8229167,25.1428871 22.8958333,25.12503 22.96875,25.1071728 C23.1875,25.017887 23.3333333,24.803601 23.3333333,24.5714579 L23.3333333,14.2857313 C23.3333333,14.0535882 23.1875,13.8393022 22.96875,13.7500164 L22.96875,13.7500164 Z" id="" sketch:type="MSShapeGroup"></path>
        </g>
    </g>
</svg>