<?xml version="1.0" encoding="UTF-8" standalone="no"?>
<svg width="28px" height="32px" viewBox="0 0 28 32" version="1.1" xmlns="http://www.w3.org/2000/svg" xmlns:xlink="http://www.w3.org/1999/xlink" xmlns:sketch="http://www.bohemiancoding.com/sketch/ns">
    <!-- Generator: Sketch 3.1 (8751) - http://www.bohemiancoding.com/sketch -->
    <title>word</title>
    <desc>Created with Sketch.</desc>
    <defs></defs>
    <g id="Page-1" stroke="none" stroke-width="1" fill="none" fill-rule="evenodd" sketch:type="MSPage">
        <g id="word" sketch:type="MSArtboardGroup" fill="#000000">
            <path d="M26.7604167,6.78572237 L21.0729167,1.21428716 C20.3984375,0.553572088 19.0494792,0 18.0833333,0 L1.75,0 C0.783854167,0 0,0.767858058 0,1.71428776 L0,30.2857504 C0,31.2321801 0.783854167,32.0000381 1.75,32.0000381 L26.25,32.0000381 C27.2161458,32.0000381 28,31.2321801 28,30.2857504 L28,9.71429729 C28,8.76786759 27.4348958,7.44643745 26.7604167,6.78572237 L26.7604167,6.78572237 Z M18.6666667,2.42857432 C18.9765625,2.53571731 19.2864583,2.69643179 19.4140625,2.82143193 L25.1197917,8.41072431 C25.2473958,8.53572446 25.4114583,8.83929625 25.5208333,9.14286804 L18.6666667,9.14286804 L18.6666667,2.42857432 Z M25.6666667,29.7143211 L2.33333333,29.7143211 L2.33333333,2.28571701 L16.3333333,2.28571701 L16.3333333,9.71429729 C16.3333333,10.660727 17.1171875,11.4285851 18.0833333,11.4285851 L25.6666667,11.4285851 L25.6666667,29.7143211 Z M4.24739583,15.6250186 L5.5234375,15.6250186 L8.51302083,27.4286041 L11.4114583,27.4286041 L13.7447917,18.7678795 C13.8359375,18.5000221 13.890625,18.2321646 13.9270833,17.94645 C13.9453125,17.8035927 13.9635417,17.6607353 13.9635417,17.517878 L14.0364583,17.517878 L14.0911458,17.94645 C14.1458333,18.1964503 14.1640625,18.4821649 14.2552083,18.7678795 L16.5885417,27.4286041 L19.4869792,27.4286041 L22.4765625,15.6250186 L23.7526042,15.6250186 L23.7526042,13.7143021 L18.2838542,13.7143021 L18.2838542,15.6250186 L19.9244792,15.6250186 L18.1197917,23.4464565 C18.046875,23.7321711 18.0104167,24.0357429 17.9921875,24.2678861 L17.9557292,24.6428865 L17.8828125,24.6428865 C17.8828125,24.5357435 17.8463542,24.3928862 17.828125,24.2678861 C17.7734375,24.0357429 17.7369792,23.7321711 17.6640625,23.4464565 L15.0390625,13.7143021 L12.9609375,13.7143021 L10.3359375,23.4464565 C10.2630208,23.7321711 10.2447917,24.0357429 10.1901042,24.2678861 L10.1171875,24.6428865 L10.0442708,24.6428865 L10.0078125,24.2678861 C9.98958333,24.0357429 9.953125,23.7321711 9.88020833,23.4464565 L8.07552083,15.6250186 L9.71614583,15.6250186 L9.71614583,13.7143021 L4.24739583,13.7143021 L4.24739583,15.6250186 Z" id="" sketch:type="MSShapeGroup"></path>
        </g>
    </g>
</svg>